<svg version="1.2" xmlns="http://www.w3.org/2000/svg" viewBox="0 0 2048 2048" width="2048" height="2048">
	<defs>
		<linearGradient id="g1" x2="1" gradientUnits="userSpaceOnUse" gradientTransform="matrix(0,1497.471,-1065.895,0,1024,273.955)">
			<stop offset="0" stop-color="#5f359b"/>
			<stop offset="1" stop-color="#000000"/>
		</linearGradient>
		<linearGradient id="g2" x2="1" gradientUnits="userSpaceOnUse" gradientTransform="matrix(0,-1707.882,1215.665,0,1024,1876.632)">
			<stop offset="0" stop-color="#5f359b"/>
			<stop offset=".36" stop-color="#5d3298"/>
			<stop offset=".57" stop-color="#572b90"/>
			<stop offset=".75" stop-color="#4e1f81"/>
			<stop offset=".9" stop-color="#410e6d"/>
			<stop offset="1" stop-color="#37005d"/>
		</linearGradient>
		<linearGradient id="g3" x2="1" gradientUnits="userSpaceOnUse" gradientTransform="matrix(0,1497.471,-1065.895,0,1024,273.955)">
			<stop offset="0" stop-color="#5f359b"/>
			<stop offset="1" stop-color="#000000"/>
		</linearGradient>
		<linearGradient id="g4" x2="1" gradientUnits="userSpaceOnUse" gradientTransform="matrix(0,167.955,-1065.895,0,1024,1603.472)">
			<stop offset="0" stop-color="#5f359b"/>
			<stop offset="1" stop-color="#000000"/>
		</linearGradient>
		<linearGradient id="g5" x2="1" gradientUnits="userSpaceOnUse" gradientTransform="matrix(0,-1329.517,1065.895,0,1024,1603.472)">
			<stop offset="0" stop-color="#a058fb"/>
			<stop offset="1" stop-color="#490094"/>
		</linearGradient>

        <!-- Dexrn - if supported by everything, cuts down image size and renders the shadow in real time -->
        <filter id="shadow" x="-50%" y="-50%" width="250%" height="250%" color-interpolation-filters="sRGB">
            <feOffset in="SourceGraphic" />
            <feGaussianBlur stdDeviation="48" />
            <feBlend in="SourceGraphic" in2="blurOut" />
        </filter>
	</defs>
    <style>
        .s0 { fill: url(#g1);stroke: url(#g2);stroke-miterlimit:10;stroke-width: 210.4 }
        .s1 { fill: url(#g3);stroke: #000000;stroke-miterlimit:10;stroke-width: 140.3 }
        .s2 { fill: url(#g4) }
        .s3 { fill: url(#g5) }
        .s4 { fill: none }
        .s5 { fill: #a058fb }
    </style>
	<g filter="url(#shadow)">
		<path fill-rule="evenodd" class="s0" d="m1556.95 1603.47l-79.07 167.96h-907.76l-79.07-167.96 120.83-1329.51h412.12v1004.68h503.4z"/>
	</g>
	<g>
		<path fill-rule="evenodd" class="s1" d="m1556.95 1603.47l-79.07 167.96h-907.76l-79.07-167.96 120.83-1329.51h412.12v1004.68h503.4z"/>
	</g>
	<g>
		<path fill-rule="evenodd" class="s2" d="m1556.95 1603.47l-79.07 167.96h-907.76l-79.07-167.96z"/>
		<path fill-rule="evenodd" class="s3" d="m1024 273.96v1004.68h503.4l29.55 324.83h-1065.9l120.83-1329.51z"/>
	</g>
	<g>
		<path fill-rule="evenodd" class="s4" d="m1527.44 1278.64l-56.01 0.05h-55.97l-56.06 0.05-55.97 0.04h-55.97l-55.97 0.05-55.97 0.05h-55.92l-55.97 0.04 0.04-50.68v-49.75l0.05-48.82v-95.1l0.05-46.34v-90.15l0.04-43.95v-85.66l0.05-41.8v-81.46l0.05-39.74v-115.45l0.04-37.22v-108.38l0.05-35.02v-34.46l45.78-0.14 45.73-0.1 45.77-0.09 45.78-0.14 45.82-0.09 45.78-0.1 45.82-0.09 45.78-0.14 45.82-0.09 3.13 34.5 3.18 35.02 3.23 35.59h0.04l3.28 36.14 3.32 36.71 3.41 37.26 3.41 37.88 3.51 38.52 3.55 39.09 3.65 39.8 3.65 40.39 3.74 41.1 3.83 41.81 3.84 42.5 3.92 43.2 4.03 44 4.06 44.75 4.17 45.5 4.2 46.33 4.26 47.18 4.39 48.02 4.45 48.86 4.53 49.8z"/>
		<path fill-rule="evenodd" class="s4" d="m1497.71 1603.8h-947.56l4.63-56.72 4.54-55.64 4.44-54.57 4.35-53.53 4.25-52.61 4.21-51.57 4.12-50.64 4.07-49.7 3.92-48.82 3.93-47.93 3.83-47.08 3.75-46.29 3.74-45.45 3.6-44.65 3.6-43.91 3.5-43.21 3.46-42.45 3.37-41.76 3.37-41.05 3.27-40.35 3.23-39.75 3.18-39.04 3.13-38.48 3.08-37.83 3.04-37.22 2.95-36.66 2.95-36.09 2.89-35.54 2.86-35.02 46.01-0.09 46.1-0.14 46.06-0.1 46.05-0.09 46.06-0.1 46.1-0.14 46.11-0.09-0.38 35.02-0.37 35.59-0.38 36.09-0.37 36.71-0.37 37.22-0.42 37.82-0.38 38.53-0.42 39.05-0.42 39.79-0.42 40.35-0.42 41.1-0.47 41.75-0.42 42.46-0.47 43.2-0.47 43.96-0.46 44.7-0.47 45.45-0.47 46.33-0.51 47.14-0.52 47.92-0.51 48.87-0.52 49.75-0.51 50.68-0.56 51.58h56.44l56.48-0.05 56.44-0.05h56.48l56.53-0.04 56.48-0.05h56.49l56.58-0.05h56.48l4.25 52.65 4.35 53.59 4.44 54.7 4.49 55.74z"/>
		<path fill-rule="evenodd" class="s5" d="m1557.04 1603.8h-59.33l-4.59-56.81-4.49-55.74-4.44-54.7-4.35-53.59-4.25-52.65h-56.48l-56.58 0.05h-56.49l-56.48 0.05-56.53 0.04h-56.48l-56.44 0.05-56.48 0.05h-56.44l0.56-51.58 0.51-50.68 0.52-49.75 0.51-48.87 0.52-47.92 0.51-47.14 0.47-46.33 0.47-45.45 0.46-44.7 0.47-43.96 0.47-43.2 0.42-42.46 0.47-41.75 0.42-41.1 0.42-40.35 0.42-39.79 0.42-39.05 0.38-38.53 0.42-37.82 0.37-37.22 0.37-36.71 0.38-36.09 0.37-35.59 0.38-35.02-46.11 0.09-46.1 0.14-46.06 0.1-46.05 0.09-46.06 0.1-46.1 0.14-46.01 0.09-2.86 35.02-2.89 35.54-2.95 36.09-2.95 36.66-3.04 37.22-3.08 37.83-3.13 38.48-3.18 39.04-3.23 39.75-3.27 40.35-3.37 41.05-3.37 41.76-3.46 42.45-3.5 43.21-3.6 43.91-3.6 44.65-3.74 45.45-3.75 46.29-3.83 47.08-3.93 47.93-3.92 48.82-4.07 49.7-4.12 50.64-4.21 51.57-4.25 52.61-4.35 53.53-4.44 54.57-4.54 55.64-4.63 56.72h-59.1l5.19-56.72 5.1-55.64 5-54.57 4.87-53.53 4.81-52.56 4.72-51.57 4.63-50.64 4.54-49.71 4.49-48.81 4.39-47.93 4.3-47.09 4.21-46.29 4.16-45.44 4.12-44.66 4.02-43.9 3.93-43.21 3.88-42.41 3.83-41.75 3.74-41.06 3.7-40.35 3.64-39.74 3.56-39.05 3.5-38.48 3.46-37.82 3.42-37.22 3.36-36.66 3.32-36.1 3.23-35.54 3.23-35.02 3.13-34.46 45.68-0.09 45.68-0.14 45.73-0.1 45.73-0.09 45.69-0.09 45.73-0.14 45.72-0.1 45.78-0.09 45.73-0.09v34.46l-0.05 35.02v108.38l-0.04 37.22v115.45l-0.05 39.74v81.46l-0.05 41.8v85.66l-0.04 43.95v90.15l-0.05 46.34v95.1l-0.05 48.82v49.75l-0.04 50.68 55.97-0.04h55.92l55.97-0.05 55.97-0.05h55.97l55.97-0.04 56.06-0.05h55.97l56.01-0.05 4.73 51.62 4.77 52.65 4.9 53.64 4.96 54.7 5.05 55.74z"/>
		<path fill-rule="evenodd" class="s4" d="m1493.12 1546.99h-58.73-58.72-58.73l-58.68 0.04h-58.73-58.64-58.68-58.68-58.59-58.63-58.63-58.59l-58.59 0.05h-58.59-58.59-58.54"/>
		<path fill-rule="evenodd" class="s4" d="m1488.63 1491.25h-58.16l-58.22 0.05h-58.12-58.12-58.12l-58.12 0.05h-58.12-58.07-58.07-58.03l-58.07 0.04h-58.08-57.98-58.02l-58.03 0.05h-57.98"/>
		<path fill-rule="evenodd" class="s4" d="m1484.19 1436.55l-57.6 0.04h-57.61l-57.61 0.05h-57.55-57.61l-57.51 0.05h-57.56l-57.56 0.04h-57.51-57.47l-57.51 0.05h-57.51-57.47l-57.46 0.05h-57.47l-57.42 0.04"/>
		<path fill-rule="evenodd" class="s4" d="m1479.84 1382.96h-57.04l-57.09 0.05h-57.05l-57 0.04h-57.04l-57 0.05h-57l-56.99 0.05h-57l-56.95 0.04h-56.95l-56.96 0.05h-56.9l-56.95 0.05h-56.91l-56.9 0.05"/>
		<path fill-rule="evenodd" class="s4" d="m967.19 1330.55l-56.44 0.04h-56.39l-56.43 0.05-56.4 0.05h-56.39l-56.39 0.04h-56.39"/>
		<path fill-rule="evenodd" class="s4" d="m967.75 1278.97h-55.92l-55.92 0.05-55.88 0.04h-55.88l-55.87 0.05-55.83 0.05h-55.88"/>
		<path fill-rule="evenodd" class="s4" d="m1522.86 1227.91l-55.55 0.05-55.45 0.05h-55.5l-55.46 0.04-55.45 0.05-55.51 0.05h-55.4l-55.46 0.04-55.41 0.05"/>
		<path fill-rule="evenodd" class="s4" d="m968.26 1228.29l-55.4 0.04h-55.37l-55.4 0.05-55.36 0.05-55.32 0.04h-55.36l-55.36 0.05"/>
		<path fill-rule="evenodd" class="s4" d="m1518.33 1178.11l-55.04 0.05-54.94 0.05-55.03 0.04-54.94 0.05h-54.94l-54.99 0.05-54.9 0.04-54.94 0.05-54.94 0.05"/>
		<path fill-rule="evenodd" class="s4" d="m968.78 1178.54l-54.9 0.04-54.89 0.05-54.85 0.05h-54.84l-54.85 0.04-54.89 0.05-54.8 0.05"/>
		<path fill-rule="evenodd" class="s4" d="m1513.88 1129.25l-54.52 0.05-54.47 0.05-54.52 0.04-54.47 0.05-54.43 0.05-54.47 0.04-54.43 0.05-54.42 0.05-54.43 0.04"/>
		<path fill-rule="evenodd" class="s4" d="m969.29 1129.67l-54.38 0.05-54.42 0.05-54.38 0.04-54.34 0.05-54.37 0.05-54.34 0.04-54.38 0.05"/>
		<path fill-rule="evenodd" class="s4" d="m1509.49 1081.23l-54.01 0.05-53.96 0.05-54.05 0.04-53.96 0.05-54 0.05-53.96 0.04-53.96 0.05-53.91 0.05-53.96 0.09"/>
		<path fill-rule="evenodd" class="s4" d="m969.81 1081.75l-53.91 0.04-53.92 0.05-53.91 0.05-53.86 0.04-53.87 0.05-53.86 0.05-53.87 0.04"/>
		<path fill-rule="evenodd" class="s4" d="m1505.23 1034.05l-53.58 0.05-53.49 0.05-53.54 0.09-53.49 0.05-53.49 0.04-53.49 0.05-53.5 0.05-53.44 0.04-53.49 0.1"/>
		<path fill-rule="evenodd" class="s4" d="m970.32 1034.61l-53.44 0.05-53.45 0.05-53.44 0.04-53.35 0.05-53.4 0.09-53.44 0.05-53.36 0.05"/>
		<path fill-rule="evenodd" class="s4" d="m1501.03 987.72l-53.12 0.04-53.03 0.05-53.07 0.09-53.02 0.05-53.02 0.05-53.03 0.04-53.02 0.1-52.98 0.04-52.97 0.05"/>
		<path fill-rule="evenodd" class="s4" d="m970.79 988.28l-52.98 0.04-52.97 0.1-52.93 0.04-52.93 0.05-52.93 0.05-52.93 0.09-52.93 0.05"/>
		<path fill-rule="evenodd" class="s4" d="m1496.86 942.22l-52.6 0.05-52.56 0.09-52.64 0.05-52.56 0.04-52.56 0.05-52.55 0.09-52.56 0.05-52.51 0.05-52.55 0.09"/>
		<path fill-rule="evenodd" class="s4" d="m971.26 942.83l-52.51 0.04-52.51 0.05-52.46 0.1-52.47 0.04-52.51 0.05-52.46 0.05-52.41 0.09"/>
		<path fill-rule="evenodd" class="s4" d="m1492.8 897.47l-52.19 0.05-52.08 0.09-52.19 0.05-52.09 0.09-52.13 0.05-52.09 0.05-52.09 0.09-52.09 0.05-52.08 0.09"/>
		<path fill-rule="evenodd" class="s4" d="m971.72 898.13l-52.04 0.04-52.04 0.1-52.04 0.04-52.04 0.05-52 0.09-52.04 0.05-51.99 0.1"/>
		<path fill-rule="evenodd" class="s4" d="m1488.77 853.47l-51.71 0.1-51.62 0.04-51.72 0.1-51.66 0.04-51.67 0.1-51.67 0.04-51.67 0.1-51.62 0.04-51.62 0.1"/>
		<path fill-rule="evenodd" class="s4" d="m972.19 854.17l-51.62 0.1-51.62 0.05-51.57 0.09-51.58 0.05-51.57 0.09-51.58 0.05-51.52 0.09"/>
		<path fill-rule="evenodd" class="s4" d="m1484.85 810.27l-51.25 0.09-51.25 0.05-51.24 0.09-51.25 0.05-51.25 0.09-51.2 0.05-51.2 0.09-51.2 0.05-51.2 0.09"/>
		<path fill-rule="evenodd" class="s4" d="m972.66 810.97l-51.2 0.09-51.15 0.05-51.16 0.09-51.1 0.05-51.16 0.09-51.15 0.05-51.11 0.09"/>
		<path fill-rule="evenodd" class="s4" d="m1481.01 767.77l-50.87 0.09-50.78 0.05-50.83 0.09-50.82 0.05-50.78 0.09-50.78 0.09-50.78 0.05-50.78 0.09-50.78 0.1"/>
		<path fill-rule="evenodd" class="s4" d="m973.08 768.51l-50.73 0.1-50.73 0.04-50.74 0.1-50.68 0.09-50.73 0.05-50.69 0.09-50.69 0.05"/>
		<path fill-rule="evenodd" class="s4" d="m1477.18 725.96l-50.41 0.1-50.36 0.04-50.4 0.1-50.41 0.09-50.35 0.05-50.36 0.09-50.36 0.1-50.31 0.04-50.36 0.1"/>
		<path fill-rule="evenodd" class="s4" d="m973.55 726.76l-50.36 0.05-50.31 0.09-50.31 0.09-50.27 0.05-50.26 0.09-50.31 0.1-50.27 0.04"/>
		<path fill-rule="evenodd" class="s4" d="m1473.44 684.86l-49.99 0.1-49.93 0.04-50.04 0.1-49.93 0.09-49.94 0.1-49.98 0.04-49.94 0.1-49.89 0.09-49.94 0.09"/>
		<path fill-rule="evenodd" class="s4" d="m973.97 685.66l-49.94 0.09-49.89 0.1-49.89 0.04-49.84 0.1-49.89 0.09-49.85 0.09-49.84 0.05"/>
		<path fill-rule="evenodd" class="s4" d="m1469.79 644.47l-49.61 0.09-49.52 0.09-49.61 0.05-49.51 0.09-49.57 0.1-49.56 0.09-49.52 0.05-49.51 0.09-49.52 0.09"/>
		<path fill-rule="evenodd" class="s4" d="m974.39 645.31l-49.52 0.09-49.47 0.05-49.51 0.09-49.43 0.09-49.47 0.1-49.47 0.04-49.42 0.1"/>
		<path fill-rule="evenodd" class="s4" d="m1466.14 604.67l-49.14 0.1-49.14 0.09-49.19 0.09-49.14 0.05-49.15 0.1-49.14 0.09-49.14 0.09-49.1 0.1-49.09 0.09"/>
		<path fill-rule="evenodd" class="s4" d="m974.81 605.52l-49.14 0.09-49.05 0.09-49.1 0.1-49 0.09-49.1 0.09-49.04 0.05-49.05 0.09"/>
		<path fill-rule="evenodd" class="s4" d="m1462.59 565.58l-48.77 0.1-48.72 0.09-48.82 0.1-48.72 0.09-48.77 0.05-48.72 0.09-48.77 0.09-48.67 0.1-48.72 0.09"/>
		<path fill-rule="evenodd" class="s4" d="m975.23 566.47l-48.72 0.1-48.68 0.09-48.72 0.09-48.63 0.05-48.67 0.09-48.68 0.1-48.62 0.09"/>
		<path fill-rule="evenodd" class="s4" d="m1459.08 527.06l-48.39 0.09-48.35 0.09-48.39 0.1-48.35 0.09-48.35 0.09-48.35 0.1-48.34 0.09-48.31 0.09-48.34 0.1"/>
		<path fill-rule="evenodd" class="s4" d="m975.61 527.94l-48.31 0.1-48.3 0.09-48.3 0.1-48.25 0.09-48.3 0.09-48.26 0.1-48.25 0.09"/>
		<path fill-rule="evenodd" class="s4" d="m1455.67 489.18l-48.02 0.1-47.97 0.09-48.02 0.09-47.93 0.1-48.02 0.09-47.98 0.09-47.92 0.1-47.93 0.09-47.97 0.09"/>
		<path fill-rule="evenodd" class="s4" d="m976.03 490.12l-47.98 0.09-47.88 0.09-47.92 0.1-47.88 0.09-47.88 0.09-47.93 0.1-47.84 0.09"/>
		<path fill-rule="evenodd" class="s4" d="m1452.26 451.92l-47.6 0.09-47.6 0.09-47.65 0.1-47.55 0.09-47.65 0.09-47.6 0.1-47.55 0.09-47.55 0.09-47.56 0.14"/>
		<path fill-rule="evenodd" class="s4" d="m976.4 452.9l-47.55 0.09-47.56 0.09-47.5 0.1-47.51 0.09-47.5 0.1-47.56 0.09-47.46 0.09"/>
		<path fill-rule="evenodd" class="s4" d="m1448.94 415.21l-47.28 0.09-47.22 0.1-47.23 0.09-47.22 0.1-47.23 0.14-47.22 0.09-47.23 0.09-47.13 0.1-47.23 0.09"/>
		<path fill-rule="evenodd" class="s4" d="m976.77 416.19l-47.17 0.1-47.18 0.09-47.14 0.09-47.13 0.14-47.13 0.1-47.18 0.09-47.13 0.09"/>
		<path fill-rule="evenodd" class="s4" d="m1445.66 379.07h-0.04l-46.85 0.09-46.86 0.09-46.89 0.14-46.86 0.1-46.89 0.09-46.81 0.09-46.85 0.1-46.81 0.09-46.85 0.14"/>
		<path fill-rule="evenodd" class="s4" d="m977.15 380.1l-46.81 0.09-46.8 0.09-46.81 0.1-46.75 0.09-46.76 0.14-46.81 0.09-46.75 0.1"/>
		<path fill-rule="evenodd" class="s4" d="m1442.39 343.48l-46.52 0.1-46.48 0.09-46.53 0.14-46.47 0.1-46.53 0.09-46.47 0.09-46.48 0.14-46.43 0.1-46.53 0.09"/>
		<path fill-rule="evenodd" class="s4" d="m977.52 344.51l-46.47 0.1-46.44 0.14-46.43 0.09-46.38 0.09-46.43 0.1-46.43 0.14-46.39 0.09"/>
		<path fill-rule="evenodd" class="s4" d="m1439.21 308.46l-46.15 0.1-46.15 0.09-46.15 0.14-46.15 0.09-46.15 0.1-46.15 0.09-46.1 0.14-46.11 0.09-46.1 0.1"/>
		<path fill-rule="evenodd" class="s4" d="m1471.43 1278.69l-4.12-50.73-4.02-49.8-3.93-48.86-3.88-48.02-3.83-47.18-3.74-46.34-3.65-45.49-3.65-44.75-3.55-43.95-3.46-43.21-3.46-42.5-3.37-41.8-3.32-41.1-3.27-40.4-3.18-39.79-3.18-39.09-3.13-38.53-3.04-37.87-2.99-37.27-3-36.71-2.89-36.14-2.9-35.58-2.81-35.02-2.8-34.51"/>
		<path fill-rule="evenodd" class="s4" d="m1438.42 1603.8l-4.03-56.81-3.92-55.74-3.88-54.66-3.79-53.63-3.69-52.65"/>
		<path fill-rule="evenodd" class="s4" d="m1415.46 1278.69l-3.6-50.68-3.51-49.8-3.46-48.86-3.37-48.02-3.36-47.18-3.28-46.34-3.18-45.45-3.17-44.75-3.09-44-3.09-43.2-2.99-42.5-2.95-41.81-2.89-41.1-2.86-40.35-2.8-39.79-2.76-39.09-2.76-38.53-2.66-37.87-2.62-37.27-2.62-36.7-2.53-36.15-2.52-35.58-2.48-35.02-2.43-34.46v-0.05"/>
		<path fill-rule="evenodd" class="s4" d="m1379.08 1603.8l-3.41-56.81-3.42-55.69-3.27-54.71-3.27-53.58-3.18-52.65"/>
		<path fill-rule="evenodd" class="s4" d="m1359.4 1278.74l-3.04-50.73-3.04-49.76-2.95-48.86-2.9-48.02-2.85-47.13-2.81-46.34-2.75-45.49-2.72-44.75-2.62-43.95-2.61-43.21-2.58-42.5-2.52-41.8-2.53-41.1-2.43-40.4-2.38-39.75-2.39-39.08-2.33-38.53-2.29-37.88-2.25-37.26-2.2-36.71-2.19-36.1-2.16-35.58-2.1-35.02-2.1-34.51"/>
		<path fill-rule="evenodd" class="s4" d="m1319.79 1603.8l-2.85-56.81-2.81-55.69-2.76-54.66-2.71-53.63-2.62-52.65"/>
		<path fill-rule="evenodd" class="s4" d="m1303.43 1278.78l-2.53-50.73-2.52-49.75-2.48-48.86-2.39-48.02-2.38-47.13-2.34-46.34-2.29-45.5-2.25-44.7-2.19-44-2.2-43.2-2.15-42.5-2.11-41.76-2.05-41.1-2.01-40.4-2.01-39.79-1.97-39.04-1.96-38.53-1.87-37.87-1.87-37.27-1.87-36.7-1.83-36.1-1.77-35.58-1.78-35.03-1.73-34.5"/>
		<path fill-rule="evenodd" class="s4" d="m1260.55 1603.8l-2.29-56.77-2.25-55.73-2.19-54.66-2.16-53.59-2.1-52.64"/>
		<path fill-rule="evenodd" class="s4" d="m1247.46 1278.78l-2.01-50.68-2.01-49.8-1.97-48.81-1.96-48.02-1.87-47.14-1.87-46.33-1.83-45.5-1.82-44.7-1.73-43.95-1.78-43.21-1.68-42.5-1.68-41.8-1.64-41.05-1.64-40.4-1.59-39.79-1.59-39.09-1.54-38.49-1.54-37.87-1.5-37.27-1.45-36.65-1.49-36.15-1.41-35.58-1.4-35.02-1.4-34.51"/>
		<path fill-rule="evenodd" class="s4" d="m1201.26 1603.8l-1.73-56.77-1.64-55.73-1.68-54.66-1.59-53.59-1.59-52.6"/>
		<path fill-rule="evenodd" class="s4" d="m1191.49 1278.83l-1.55-50.68-1.49-49.8-1.45-48.82-1.45-48.02-1.4-47.13-1.41-46.34-1.35-45.45-1.36-44.74-1.31-43.96-1.31-43.2-1.26-42.46-1.26-41.8-1.26-41.1-1.22-40.35-1.17-39.79-1.17-39.09-1.17-38.48-1.17-37.88-1.12-37.26-1.07-36.66-1.08-36.15-1.07-35.58-1.08-35.02-1.03-34.46"/>
		<path fill-rule="evenodd" class="s4" d="m1142.02 1603.8l-1.13-56.77-1.12-55.68-1.07-54.66-1.08-53.59-1.07-52.65"/>
		<path fill-rule="evenodd" class="s4" d="m1135.52 1278.88l-0.98-50.73-0.99-49.76-0.98-48.81-0.98-48.02-0.94-47.13-0.93-46.29-0.89-45.5-0.89-44.7-0.89-43.95-0.84-43.21-0.84-42.5-0.84-41.75-0.84-41.1-0.8-40.4-0.79-39.75-0.8-39.09-0.74-38.48-0.75-37.87-0.75-37.27-0.75-36.66-0.7-36.14-0.7-35.54-0.7-35.02-0.7-34.51"/>
		<path fill-rule="evenodd" class="s4" d="m1082.77 1603.8l-0.56-56.77-0.56-55.68-0.51-54.66-0.52-53.59-0.51-52.6"/>
		<path fill-rule="evenodd" class="s4" d="m1079.6 1278.88l-0.52-50.69-0.47-49.75-0.46-48.81-0.47-48.02-0.47-47.14-0.47-46.29-0.42-45.49-0.47-44.7-0.42-43.96-0.42-43.2-0.42-42.46-0.37-41.8-0.42-41.05-0.42-40.4-0.38-39.74-0.37-39.09-0.38-38.49-0.37-37.87-0.37-37.27-0.33-36.65-0.38-36.15-0.32-35.53-0.38-35.03-0.32-34.5"/>
		<path fill-rule="evenodd" class="s4" d="m1023.53 1603.8v-56.77l0.05-55.68v-54.62l0.05-53.58v-52.6"/>
		<path fill-rule="evenodd" class="s4" d="m964.34 1603.8l0.6-56.77 0.57-55.68 0.56-54.62 0.56-53.58 0.56-52.6"/>
		<path fill-rule="evenodd" class="s4" d="m905.14 1603.8l1.17-56.77 1.17-55.68 1.12-54.62 1.08-53.54 1.07-52.6 1.08-51.62 1.03-50.64 1.02-49.75 1.03-48.86 0.99-47.93 0.98-47.13 0.93-46.34 0.94-45.45 0.93-44.7 0.89-43.9 0.89-43.21 0.89-42.45 0.84-41.8 0.84-41.06 0.84-40.35 0.8-39.79 0.84-39.04 0.79-38.53 0.75-37.83 0.8-37.22 0.75-36.7 0.74-36.1 0.71-35.58 0.74-35.03"/>
		<path fill-rule="evenodd" class="s4" d="m845.95 1603.8l1.73-56.77 1.73-55.64 1.68-54.61 1.64-53.59 1.63-52.6 1.55-51.57 1.58-50.69 1.5-49.7 1.5-48.86 1.49-47.93 1.45-47.13 1.41-46.29 1.4-45.5 1.4-44.65 1.31-43.95 1.36-43.21 1.31-42.46 1.26-41.75 1.26-41.05 1.26-40.4 1.22-39.75 1.21-39.04 1.17-38.53 1.17-37.83 1.12-37.22 1.13-36.7 1.12-36.1 1.07-35.53 1.08-35.03"/>
		<path fill-rule="evenodd" class="s4" d="m786.75 1603.8l2.34-56.77 2.24-55.64 2.25-54.61 2.19-53.54 2.16-52.6 2.1-51.58 2.06-50.68 2.05-49.7 1.97-48.87 1.96-47.92 1.92-47.14 1.92-46.29 1.87-45.44 1.82-44.71 1.78-43.9 1.77-43.21 1.73-42.45 1.69-41.76 1.68-41.1 1.64-40.35 1.63-39.74 1.59-39.05 1.59-38.52 1.55-37.83 1.54-37.22 1.49-36.71 1.45-36.09 1.45-35.54 1.45-35.02"/>
		<path fill-rule="evenodd" class="s4" d="m727.6 1603.8l2.9-56.72 2.85-55.69 2.76-54.61 2.76-53.54 2.66-52.55 2.62-51.63 2.58-50.63 2.57-49.75 2.47-48.82 2.44-47.93 2.43-47.13 2.34-46.29 2.33-45.45 2.25-44.7 2.24-43.9 2.25-43.21 2.15-42.41 2.1-41.8 2.11-41.05 2.05-40.36 2.06-39.74 1.96-39.09 1.97-38.48 1.92-37.83 1.91-37.22 1.87-36.66 1.83-36.14 1.82-35.54 1.78-35.02"/>
		<path fill-rule="evenodd" class="s4" d="m668.45 1603.8l3.46-56.72 3.42-55.69 3.32-54.56 3.27-53.54 3.22-52.6 3.14-51.58 3.13-50.64 3.04-49.75 2.95-48.81 2.94-47.93 2.9-47.09 2.81-46.33 2.75-45.45 2.76-44.66 2.67-43.9 2.66-43.21 2.58-42.45 2.57-41.76 2.48-41.05 2.47-40.35 2.43-39.75 2.39-39.09 2.34-38.48 2.34-37.83 2.29-37.21 2.24-36.66 2.2-36.1 2.15-35.58 2.15-35.02"/>
		<path fill-rule="evenodd" class="s4" d="m609.3 1603.8l4.02-56.72 3.98-55.64 3.88-54.61 3.83-53.54 3.74-52.56 3.7-51.57 3.6-50.69 3.51-49.7 3.5-48.82 3.42-47.92 3.32-47.09 3.32-46.29 3.22-45.49 3.18-44.66 3.13-43.9 3.09-43.21 3.04-42.41 2.95-41.75 2.94-41.06 2.85-40.4 2.86-39.74 2.75-39.04 2.76-38.48 2.67-37.83 2.66-37.22 2.62-36.66 2.57-36.1 2.53-35.53 2.48-35.02"/>
	</g>
</svg>